HIERARCHY
ROOT Hips
{
  OFFSET 0 0 0
  CHANNELS 6 Xposition Yposition Zposition Zrotation Yrotation Xrotation
  JOINT LeftThigh
  {
    OFFSET 8.409438 0 -5.917753
    CHANNELS 3 Zrotation Yrotation Xrotation
    JOINT LeftLeg
    {
      OFFSET 0 0 -42.358652
      CHANNELS 3 Zrotation Yrotation Xrotation
      JOINT LeftFoot
      {
        OFFSET 0 0 -39.357303
        CHANNELS 3 Zrotation Yrotation Xrotation
      }
    }
  }
  JOINT RightThigh
  {
    OFFSET -8.409438 0 -5.917753
    CHANNELS 3 Zrotation Yrotation Xrotation
    JOINT RightLeg
    {
      OFFSET 0 0 -42.358652
      CHANNELS 3 Zrotation Yrotation Xrotation
      JOINT RightFoot
      {
        OFFSET 0 0 -39.357303
        CHANNELS 3 Zrotation Yrotation Xrotation
      }
    }
  }
  JOINT SpineLow
  {
    OFFSET 0 0 4.719101
    CHANNELS 3 Zrotation Yrotation Xrotation
    JOINT SpineMid
    {
      OFFSET 0 0 12.899191
      CHANNELS 3 Zrotation Yrotation Xrotation
      JOINT Chest
      {
        OFFSET 0 0 12.899191
        CHANNELS 3 Zrotation Yrotation Xrotation
        JOINT LeftShoulder
        {
          OFFSET 7.550562 1.41573 9.438202
          CHANNELS 3 Zrotation Yrotation Xrotation
          JOINT LeftArm
          {
            OFFSET 9.155056 0 4.247191
            CHANNELS 3 Zrotation Yrotation Xrotation
            JOINT LeftForearm
            {
              OFFSET 0 0 25.771955
              CHANNELS 3 Zrotation Yrotation Xrotation
              JOINT LeftHand
              {
                OFFSET 0 0 25.197169
                CHANNELS 3 Zrotation Yrotation Xrotation
              }
            }
          }
        }
        JOINT RightShoulder
        {
          OFFSET -7.550562 1.41573 9.438202
          CHANNELS 3 Zrotation Yrotation Xrotation
          JOINT RightArm
          {
            OFFSET -9.155056 0 4.247191
            CHANNELS 3 Zrotation Yrotation Xrotation
            JOINT RightForearm
            {
              OFFSET 0 0 -25.771955
              CHANNELS 3 Zrotation Yrotation Xrotation
              JOINT RightHand
              {
                OFFSET 0 0 -25.197169
                CHANNELS 3 Zrotation Yrotation Xrotation
              }
            }
          }
        }
        JOINT Neck
        {
          OFFSET 0 0 15.101124
          CHANNELS 3 Zrotation Yrotation Xrotation
          JOINT Head
          {
            OFFSET 0 0 11.325843
            CHANNELS 3 Zrotation Yrotation Xrotation
            End Site
            {
              OFFSET 0 0 14.157303
            }
          }
        }
      }
    }
  }
}
MOTION
Frames: 7
Frame Time: 0.0
0.0  101.685394  0.0  2.543451  8.405447  -118.643459  4.995398  -17.290849  -75.517462  -2.750951  6.088377  32.669449  -16.673695  -19.94522  -1.089038  -18.449995  8.804827  -2.987203  13.269743  0.156602  28.999626  10.238077  1.497938  8.649855  -4.69037  1.748616  4.388364  -12.48188  5.59001  11.629484  -12.48188  5.59001  11.629484  -6.728111  24.572269  8.735224  -154.667756  41.147425  -127.007205  -68.091398  -36.903846  91.924419  53.061925  -1.883507  -6.575418  27.456139  -2.842409  26.487124  130.11756  47.877801  76.784331  -18.694364  13.031629  -112.89309  70.129894  -12.26888  3.547074  4.377925  9.672844  8.156828  3.146054  7.314838  6.033497  
0.0  101.685394  0.0  1.604651  8.358407  -118.019316  3.783159  -21.791443  -72.738682  -3.952491  4.55552  20.980696  -16.368586  -19.946424  -1.564866  -19.825432  7.460267  -3.637241  14.45845  -0.260218  29.064825  9.628546  1.683822  8.815348  -4.750101  1.590705  4.129509  -12.691886  5.123188  10.945268  -12.691886  5.123188  10.945267  -5.665044  25.612014  10.851695  -153.917553  40.493683  -126.042376  -68.680163  -36.743837  92.727534  53.021841  -1.424365  -7.314619  27.473392  -2.718216  28.062577  129.999416  47.848274  76.351307  -18.265484  12.315822  -113.372159  69.47154  -11.507424  4.474542  5.00876  10.080425  9.360447  3.59198  7.639461  6.919292  
0.0  101.685394  0.0  0.797381  7.922271  -117.599638  1.384432  -30.107692  -70.198803  3.267446  1.787059  10.997786  -17.659604  -18.273256  -0.986447  -22.794131  6.527288  -4.069145  16.383544  -0.645688  28.83938  10.100725  1.85937  9.154664  -4.602547  1.475963  4.065961  -12.311082  4.776263  10.804047  -12.311082  4.776263  10.804047  -5.915889  25.750885  11.740303  -153.400569  39.985425  -125.373573  -69.333558  -36.401229  93.393408  52.907422  -0.800571  -8.047985  26.610795  -2.739825  28.352881  129.733406  47.964939  75.758098  -18.234994  12.010472  -113.848844  68.991748  -10.860574  5.151839  5.087693  10.06424  9.990302  3.640996  7.634062  7.389402  
0.0  101.685394  0.0  0.500339  7.146254  -117.79508  2.769524  -38.246586  -70.289016  8.678576  3.681336  5.007578  -13.29653  -16.283177  -0.616266  -26.669873  6.596427  -4.033672  18.454021  -0.8499  28.448468  11.8495  1.85403  9.632876  -4.405366  1.463117  4.151283  -11.767981  4.724759  11.054589  -11.767982  4.724759  11.054589  -6.156004  25.550227  12.030855  -153.027108  39.387651  -124.892072  -70.011999  -35.839863  94.094286  52.641256  -0.142601  -8.245169  25.978641  -2.91117  27.950799  129.358575  48.019054  75.299426  -18.723927  12.0491  -114.288321  68.515398  -10.285208  5.66095  5.205506  9.951615  10.257019  3.726953  7.55391  7.588443  
0.0  101.685394  0.0  0.731734  6.52735  -118.461652  -5.120541  -44.552516  -65.030133  21.46074  -0.520787  1.942814  -14.504479  -14.884074  1.01292  -29.581181  7.695566  -3.940873  19.227412  -0.853771  28.411263  14.208818  1.555118  10.031302  -4.252789  1.558046  4.346218  -11.321078  4.990293  11.583822  -11.321078  4.990293  11.583822  -6.195746  24.989817  11.851902  -152.81824  38.645715  -124.568815  -70.634953  -35.207381  94.701566  52.40332  0.542445  -7.762715  25.410616  -3.00298  27.110991  129.245705  48.04808  75.030639  -19.307385  12.334225  -114.775412  67.958692  -9.840155  6.228547  5.401543  9.818325  10.182458  3.877423  7.456547  7.531216  
0.0  101.685394  0.0  1.463318  6.103409  -119.202721  -11.76339  -49.809629  -62.550648  33.974904  -4.199898  4.742924  -17.309346  -14.635362  2.487022  -30.35841  9.406296  -4.263498  18.54513  -0.879001  29.077943  16.403888  1.01671  10.214746  -4.13618  1.755723  4.593152  -10.948996  5.547035  12.238506  -10.948996  5.547035  12.238506  -6.246565  24.064576  10.914983  -152.779095  37.819475  -124.74198  -70.985895  -34.768167  95.257954  52.195626  1.187815  -6.947097  24.76707  -3.168036  25.904607  129.346428  48.042506  74.927485  -19.523972  12.634426  -115.376098  67.486296  -9.503505  6.846771  5.623267  9.563327  9.720248  4.055438  7.264524  7.185175  
0.0  101.685394  0.0  2.419429  5.808043  -119.761221  -12.26587  -50.986675  -64.997969  39.857723  -6.954601  12.253029  -19.946654  -15.727451  2.341434  -29.2347  10.996475  -4.861082  17.158763  -0.909393  30.376111  17.709108  0.501494  10.144578  -4.056243  1.979225  4.845025  -10.668027  6.17888  12.902583  -10.668027  6.17888  12.902583  -6.340873  23.057034  9.599057  -152.619248  36.873784  -124.960485  -70.960559  -34.689854  95.711785  52.022049  1.614262  -6.127946  24.290469  -3.254914  24.450006  129.121719  48.072432  74.692644  -19.25059  12.669639  -116.152107  67.251287  -9.233543  7.369716  5.833199  9.229212  8.84869  4.231772  7.008589  6.534037  
